<svg width="205" height="72" viewBox="0 0 205 72" fill="none" xmlns="http://www.w3.org/2000/svg">
<path d="M82.056 27.576C82.104 27.64 82.1333 27.7147 82.144 27.8C82.144 27.832 82.1413 27.864 82.136 27.896C82.136 27.9227 82.1333 27.9493 82.128 27.976C82.1227 28.0347 82.088 28.0907 82.024 28.144C81.9867 28.1707 81.9387 28.1973 81.88 28.224C81.848 28.2347 81.8133 28.2427 81.776 28.248C81.744 28.248 81.7067 28.2507 81.664 28.256C81.632 28.2667 81.5973 28.272 81.56 28.272C81.5227 28.272 81.4853 28.272 81.448 28.272H81.088L79.416 28.28V28.304L79.408 29.608C79.4507 29.608 79.496 29.608 79.544 29.608C79.5973 29.608 79.6613 29.6053 79.736 29.6C79.9493 29.6 80.1387 29.6 80.304 29.6C80.4747 29.6 80.6613 29.6027 80.864 29.608H80.912C80.9707 29.608 81.0293 29.6107 81.088 29.616C81.152 29.616 81.216 29.616 81.28 29.616C81.3387 29.6213 81.3973 29.6293 81.456 29.64C81.5147 29.6453 81.5733 29.6587 81.632 29.68C81.728 29.712 81.7973 29.7627 81.84 29.832C81.8987 29.9013 81.928 29.9733 81.928 30.048C81.928 30.08 81.928 30.112 81.928 30.144C81.928 30.1707 81.9227 30.2 81.912 30.232C81.9067 30.2747 81.872 30.328 81.808 30.392C81.7653 30.4293 81.7147 30.4533 81.656 30.464C81.6293 30.4747 81.5973 30.4853 81.56 30.496C81.528 30.5013 81.4933 30.5067 81.456 30.512C81.4187 30.5173 81.3813 30.5227 81.344 30.528C81.312 30.528 81.2747 30.528 81.232 30.528H80.864L79.392 30.536L79.368 32.392V32.456C79.368 32.4827 79.3653 32.5093 79.36 32.536C79.36 32.5573 79.3573 32.5813 79.352 32.608C79.3413 32.6347 79.3307 32.664 79.32 32.696C79.3147 32.7227 79.3067 32.7493 79.296 32.776C79.2587 32.8507 79.224 32.9013 79.192 32.928C79.1333 32.9707 79.0613 33 78.976 33.016C78.832 33.048 78.696 33.032 78.568 32.968C78.5413 32.952 78.5147 32.9333 78.488 32.912C78.4667 32.8853 78.448 32.8533 78.432 32.816C78.4213 32.7947 78.416 32.7787 78.416 32.768L78.392 32.72C78.376 32.6933 78.3653 32.6667 78.36 32.64C78.3547 32.608 78.3493 32.5787 78.344 32.552C78.344 32.5253 78.3413 32.4987 78.336 32.472C78.336 32.4453 78.3333 32.4187 78.328 32.392C78.3227 32.3493 78.3227 32.3067 78.328 32.264V32.136L78.336 31.512L78.344 30.36C78.3493 30.1893 78.352 30.016 78.352 29.84C78.352 29.664 78.352 29.4827 78.352 29.296C78.3467 29.104 78.344 28.9333 78.344 28.784C78.3493 28.6347 78.3573 28.472 78.368 28.296V28.256C78.3733 28.1973 78.376 28.144 78.376 28.096C78.376 28.0427 78.3813 27.9893 78.392 27.936C78.4027 27.8187 78.4293 27.7147 78.472 27.624C78.5093 27.5333 78.5627 27.4693 78.632 27.432C78.712 27.384 78.7973 27.36 78.888 27.36C78.9307 27.36 78.9653 27.3627 78.992 27.368V27.36C79.088 27.36 79.1653 27.36 79.224 27.36C79.2827 27.36 79.3387 27.36 79.392 27.36C79.4453 27.36 79.504 27.36 79.568 27.36C79.632 27.3547 79.7173 27.352 79.824 27.352C80.2507 27.3467 80.672 27.3467 81.088 27.352H81.128C81.1867 27.3573 81.2453 27.36 81.304 27.36C81.368 27.36 81.432 27.3627 81.496 27.368C81.5547 27.368 81.6133 27.376 81.672 27.392C81.7307 27.4027 81.7893 27.4187 81.848 27.44C81.9387 27.4667 82.008 27.512 82.056 27.576ZM83.7676 28.296L83.7516 29.552H84.0716C84.2902 29.5467 84.4849 29.544 84.6556 29.544C84.8262 29.544 85.0156 29.5467 85.2236 29.552H85.2636C85.3276 29.552 85.3889 29.5547 85.4476 29.56C85.5116 29.56 85.5729 29.56 85.6316 29.56C85.6956 29.5653 85.7569 29.576 85.8156 29.592C85.8742 29.6027 85.9329 29.616 85.9916 29.632C86.0822 29.664 86.1569 29.712 86.2156 29.776C86.2689 29.8453 86.2956 29.9227 86.2956 30.008C86.2956 30.0347 86.2956 30.0667 86.2956 30.104C86.2956 30.136 86.2902 30.1653 86.2796 30.192C86.2689 30.2507 86.2342 30.304 86.1756 30.352C86.1489 30.3893 86.0982 30.416 86.0236 30.432C85.9542 30.4533 85.8849 30.4667 85.8156 30.472C85.7409 30.488 85.6662 30.496 85.5916 30.496H85.2156L83.7356 30.504L83.7196 32.072L85.3116 32.088H85.6876C85.7302 32.088 85.7702 32.088 85.8076 32.088C85.8449 32.088 85.8796 32.0907 85.9116 32.096C85.9542 32.1067 85.9916 32.1147 86.0236 32.12C86.0609 32.12 86.0956 32.1253 86.1276 32.136C86.1916 32.1573 86.2449 32.1867 86.2876 32.224C86.3409 32.2773 86.3756 32.3333 86.3916 32.392C86.3969 32.4187 86.3996 32.448 86.3996 32.48C86.4049 32.5067 86.4049 32.536 86.3996 32.568C86.3996 32.6533 86.3729 32.7307 86.3196 32.8C86.2556 32.8747 86.1809 32.9227 86.0956 32.944C85.9836 32.992 85.8609 33.016 85.7276 33.016C85.6689 33.0213 85.6076 33.024 85.5436 33.024C85.4796 33.024 85.4182 33.0267 85.3596 33.032H85.3116C84.8956 33.0427 84.4636 33.0427 84.0156 33.032C83.9089 33.032 83.8236 33.0293 83.7596 33.024C83.6956 33.024 83.6369 33.024 83.5836 33.024C83.5356 33.024 83.4849 33.024 83.4316 33.024C83.3782 33.024 83.3089 33.024 83.2236 33.024C83.1009 33.0347 82.9996 33.0133 82.9196 32.96C82.8609 32.9227 82.8156 32.872 82.7836 32.808C82.7676 32.792 82.7596 32.776 82.7596 32.76C82.7542 32.7493 82.7489 32.7413 82.7436 32.736C82.7382 32.7307 82.7329 32.7227 82.7276 32.712C82.7169 32.6853 82.7089 32.6587 82.7036 32.632C82.6982 32.6 82.6956 32.5707 82.6956 32.544C82.6902 32.5173 82.6849 32.4907 82.6796 32.464C82.6796 32.4373 82.6769 32.4107 82.6716 32.384V32.256C82.6716 32.2347 82.6716 32.2133 82.6716 32.192C82.6769 32.1707 82.6796 32.1493 82.6796 32.128V31.504L82.6956 30.352V29.288C82.6956 29.096 82.6956 28.9253 82.6956 28.776C82.7009 28.6267 82.7062 28.464 82.7116 28.288V28.248C82.7169 28.1893 82.7196 28.136 82.7196 28.088C82.7249 28.0347 82.7276 27.9813 82.7276 27.928C82.7329 27.8213 82.7622 27.7173 82.8156 27.616C82.8369 27.5733 82.8582 27.536 82.8796 27.504C82.9062 27.472 82.9409 27.4453 82.9836 27.424C83.0636 27.376 83.1462 27.352 83.2316 27.352C83.2742 27.352 83.3062 27.3547 83.3276 27.36V27.352C83.4236 27.352 83.5009 27.352 83.5596 27.352C83.6182 27.352 83.6742 27.352 83.7276 27.352C83.7862 27.352 83.8476 27.352 83.9116 27.352C83.9756 27.3467 84.0636 27.344 84.1756 27.344C84.3889 27.3387 84.5916 27.336 84.7836 27.336C84.9756 27.336 85.1729 27.3387 85.3756 27.344H85.4076C85.4662 27.3493 85.5276 27.352 85.5916 27.352C85.6556 27.352 85.7169 27.3547 85.7756 27.36C85.8342 27.36 85.8929 27.368 85.9516 27.384C86.0102 27.3947 86.0689 27.4107 86.1276 27.432C86.2182 27.4587 86.2929 27.504 86.3516 27.568C86.3996 27.6427 86.4236 27.7173 86.4236 27.792C86.4236 27.824 86.4236 27.856 86.4236 27.888C86.4236 27.9147 86.4182 27.9413 86.4076 27.968C86.4022 28.0213 86.3702 28.0773 86.3116 28.136C86.2902 28.1467 86.2662 28.16 86.2396 28.176C86.2182 28.192 86.1916 28.2053 86.1596 28.216C86.1276 28.2267 86.0929 28.2347 86.0556 28.24C86.0236 28.24 85.9916 28.2427 85.9596 28.248C85.9169 28.2587 85.8769 28.264 85.8396 28.264C85.8076 28.264 85.7702 28.264 85.7276 28.264H85.3676L83.7676 28.272V28.296ZM90.7582 32.392C90.7689 32.4187 90.7742 32.4587 90.7742 32.512C90.7742 32.56 90.7742 32.6 90.7742 32.632C90.7742 32.6747 90.7662 32.7147 90.7502 32.752C90.7342 32.7893 90.7129 32.824 90.6862 32.856C90.6382 32.92 90.5689 32.968 90.4782 33C90.3502 33.0427 90.2302 33.064 90.1182 33.064C90.0595 33.0693 89.9982 33.072 89.9342 33.072C89.8702 33.072 89.8062 33.0773 89.7422 33.088H89.7102C89.2995 33.0933 88.8755 33.0933 88.4382 33.088C88.3315 33.0827 88.2115 33.0827 88.0782 33.088C87.9449 33.0987 87.8142 33.096 87.6862 33.08C87.5582 33.0693 87.4409 33.04 87.3342 32.992C87.2329 32.9387 87.1609 32.856 87.1182 32.744C87.1075 32.7173 87.0995 32.6933 87.0942 32.672C87.0889 32.6453 87.0862 32.6187 87.0862 32.592C87.0649 32.4107 87.0569 32.232 87.0622 32.056C87.0675 31.88 87.0702 31.7067 87.0702 31.536L87.0862 30.376V29.304C87.0862 29.112 87.0862 28.9413 87.0862 28.792C87.0915 28.6427 87.0969 28.4773 87.1022 28.296V28.256C87.1075 28.2027 87.1102 28.1493 87.1102 28.096C87.1155 28.0427 87.1182 27.9893 87.1182 27.936C87.1289 27.8133 87.1582 27.7093 87.2062 27.624C87.2382 27.544 87.2942 27.48 87.3742 27.432C87.4435 27.384 87.5262 27.36 87.6222 27.36C87.6595 27.36 87.6942 27.3627 87.7262 27.368C87.7635 27.368 87.7982 27.3707 87.8302 27.376C87.8622 27.3813 87.8915 27.392 87.9182 27.408C87.9502 27.424 87.9822 27.4453 88.0142 27.472C88.0462 27.5093 88.0755 27.5547 88.1022 27.608C88.1235 27.6667 88.1369 27.7253 88.1422 27.784C88.1475 27.8213 88.1529 27.856 88.1582 27.888C88.1635 27.92 88.1662 27.952 88.1662 27.984C88.1555 28.016 88.1502 28.048 88.1502 28.08C88.1502 28.112 88.1502 28.1413 88.1502 28.168V28.312L88.1182 32.08L89.7022 32.096H90.0782C90.1102 32.096 90.1449 32.0987 90.1822 32.104C90.2195 32.104 90.2569 32.1067 90.2942 32.112C90.3369 32.1173 90.3742 32.1227 90.4062 32.128C90.4382 32.1333 90.4702 32.1413 90.5022 32.152C90.5609 32.168 90.6089 32.1947 90.6462 32.232C90.7049 32.2853 90.7422 32.3387 90.7582 32.392ZM94.6266 27.584C94.6853 27.6533 94.7146 27.7253 94.7146 27.8C94.7146 27.832 94.712 27.8667 94.7066 27.904C94.7066 27.936 94.704 27.9653 94.6986 27.992C94.6826 28.0507 94.648 28.1067 94.5946 28.16C94.552 28.192 94.4933 28.216 94.4186 28.232C94.3813 28.2427 94.344 28.2507 94.3066 28.256C94.2693 28.2613 94.2293 28.2693 94.1866 28.28C94.1493 28.2853 94.112 28.288 94.0746 28.288C94.0373 28.288 93.9973 28.288 93.9546 28.288H93.5466C93.4506 28.2933 93.3546 28.296 93.2586 28.296C93.168 28.296 93.0773 28.296 92.9866 28.296C92.992 28.4613 92.9946 28.64 92.9946 28.832C92.9946 29.0187 92.992 29.2373 92.9866 29.488C92.9866 29.7387 92.984 30.0293 92.9786 30.36C92.9786 30.6907 92.9786 31.0747 92.9786 31.512V32.12C92.9786 32.1733 92.9813 32.2133 92.9866 32.24C92.9866 32.2613 92.9866 32.2827 92.9866 32.304C92.9866 32.32 92.984 32.3413 92.9786 32.368C92.968 32.416 92.96 32.472 92.9546 32.536C92.9546 32.5627 92.952 32.5893 92.9466 32.616C92.9413 32.6373 92.9333 32.6613 92.9226 32.688C92.9013 32.7093 92.8906 32.7253 92.8906 32.736L92.8666 32.784C92.84 32.8373 92.7893 32.888 92.7146 32.936C92.5973 32.9947 92.4666 33.008 92.3226 32.976C92.232 32.9653 92.1626 32.9413 92.1146 32.904C92.0666 32.856 92.032 32.808 92.0106 32.76C91.9786 32.7013 91.96 32.6453 91.9546 32.592C91.9386 32.544 91.9306 32.4933 91.9306 32.44V28.328C91.8986 28.328 91.832 28.328 91.7306 28.328C91.6293 28.328 91.52 28.328 91.4026 28.328C91.2906 28.3227 91.184 28.3173 91.0826 28.312C90.9813 28.3067 90.912 28.3013 90.8746 28.296C90.8426 28.2907 90.792 28.2827 90.7226 28.272C90.6586 28.2613 90.6053 28.2507 90.5626 28.24C90.4506 28.208 90.3626 28.1573 90.2986 28.088C90.24 28.0187 90.2106 27.9413 90.2106 27.856C90.2106 27.824 90.2106 27.792 90.2106 27.76C90.2106 27.728 90.216 27.6987 90.2266 27.672C90.2426 27.608 90.2853 27.5547 90.3546 27.512C90.376 27.496 90.408 27.4773 90.4506 27.456C90.4986 27.4293 90.544 27.4107 90.5866 27.4C90.6506 27.3787 90.7306 27.3627 90.8266 27.352C90.8693 27.3467 90.912 27.344 90.9546 27.344C90.9973 27.344 91.0426 27.344 91.0906 27.344C91.2773 27.344 91.4533 27.344 91.6186 27.344C91.7893 27.344 91.968 27.3413 92.1546 27.336C92.464 27.3307 92.7706 27.3307 93.0746 27.336C93.384 27.336 93.6906 27.3413 93.9946 27.352C94.064 27.3573 94.1306 27.3653 94.1946 27.376C94.2586 27.3867 94.3226 27.4053 94.3866 27.432C94.4346 27.448 94.48 27.4693 94.5226 27.496C94.5653 27.5173 94.6 27.5467 94.6266 27.584Z" fill="white"/>
<path d="M83.076 18.834C83.3467 19.0113 83.5753 19.2213 83.762 19.464C83.958 19.6973 84.112 19.9867 84.224 20.332C84.3453 20.7147 84.406 21.102 84.406 21.494C84.4153 21.8767 84.3453 22.236 84.196 22.572C84.056 22.8987 83.8273 23.188 83.51 23.44C83.202 23.6827 82.796 23.8553 82.292 23.958C82.0213 24.0233 81.704 24.0747 81.34 24.112C80.976 24.1493 80.6493 24.168 80.36 24.168C79.996 24.1773 79.618 24.1773 79.226 24.168C78.8433 24.168 78.47 24.1307 78.106 24.056C77.9473 24.0093 77.8307 23.93 77.756 23.818C77.6907 23.6967 77.644 23.5613 77.616 23.412C77.5787 23.328 77.56 23.244 77.56 23.16V15.208C77.56 14.9467 77.6113 14.746 77.714 14.606C77.826 14.4567 77.9707 14.3493 78.148 14.284C78.3253 14.2093 78.526 14.1673 78.75 14.158C78.974 14.1393 79.2073 14.13 79.45 14.13C79.6367 14.13 79.8233 14.13 80.01 14.13C80.206 14.1207 80.402 14.1207 80.598 14.13C80.906 14.1393 81.2233 14.1673 81.55 14.214C81.886 14.2513 82.2033 14.326 82.502 14.438C82.642 14.4847 82.7913 14.55 82.95 14.634C83.1087 14.7087 83.2347 14.802 83.328 14.914C83.6267 15.1847 83.846 15.502 83.986 15.866C84.1353 16.2207 84.2007 16.5847 84.182 16.958C84.1633 17.322 84.0607 17.672 83.874 18.008C83.6967 18.344 83.4307 18.6193 83.076 18.834ZM80.626 22.544C80.9153 22.5253 81.2093 22.4927 81.508 22.446C81.8067 22.3993 82.012 22.3107 82.124 22.18C82.2453 22.0307 82.3293 21.858 82.376 21.662C82.432 21.4567 82.446 21.2513 82.418 21.046C82.3993 20.8313 82.3387 20.6307 82.236 20.444C82.1427 20.248 82.0167 20.094 81.858 19.982C81.6433 19.814 81.396 19.7067 81.116 19.66C80.836 19.604 80.5607 19.576 80.29 19.576C80.1593 19.576 80.038 19.5807 79.926 19.59C79.8233 19.59 79.73 19.604 79.646 19.632C79.5713 19.6507 79.5153 19.6927 79.478 19.758C79.4407 19.8233 79.422 19.9213 79.422 20.052C79.4407 20.2947 79.4407 20.5373 79.422 20.78C79.4033 21.0227 79.394 21.256 79.394 21.48C79.394 21.6107 79.3893 21.7553 79.38 21.914C79.38 22.0633 79.4313 22.1893 79.534 22.292C79.6367 22.3947 79.786 22.4647 79.982 22.502C80.178 22.5393 80.3927 22.5533 80.626 22.544ZM80.906 15.824C80.6167 15.8147 80.374 15.81 80.178 15.81C79.9913 15.8007 79.842 15.8147 79.73 15.852C79.6273 15.88 79.5527 15.95 79.506 16.062C79.4687 16.1647 79.4547 16.3233 79.464 16.538C79.464 16.7153 79.4593 16.8927 79.45 17.07C79.45 17.238 79.45 17.406 79.45 17.574C79.45 17.7607 79.5107 17.9007 79.632 17.994C79.7533 18.078 79.9027 18.1293 80.08 18.148C80.2667 18.1667 80.458 18.1667 80.654 18.148C80.8593 18.1293 81.0367 18.106 81.186 18.078C81.522 18.022 81.7787 17.91 81.956 17.742C82.1427 17.5647 82.25 17.308 82.278 16.972C82.3153 16.552 82.2033 16.2627 81.942 16.104C81.69 15.936 81.3447 15.8427 80.906 15.824ZM87.159 17.672C87.467 17.5227 87.789 17.4153 88.125 17.35C88.461 17.2847 88.7923 17.2707 89.119 17.308C89.455 17.3453 89.777 17.434 90.085 17.574C90.4023 17.714 90.6916 17.91 90.953 18.162C91.1676 18.3767 91.3543 18.638 91.513 18.946C91.6716 19.2447 91.7883 19.5387 91.863 19.828C92.0216 20.3413 92.045 20.8593 91.933 21.382C91.821 21.9047 91.6296 22.39 91.359 22.838C91.2283 23.0433 91.065 23.23 90.869 23.398C90.6823 23.5567 90.4816 23.6873 90.267 23.79C89.987 23.9207 89.6836 24.0093 89.357 24.056C89.0303 24.112 88.713 24.126 88.405 24.098C87.845 24.07 87.3503 23.93 86.921 23.678C86.501 23.426 86.1603 23.104 85.899 22.712C85.647 22.32 85.479 21.8767 85.395 21.382C85.3203 20.878 85.353 20.3647 85.493 19.842C85.6423 19.282 85.857 18.8293 86.137 18.484C86.4263 18.1293 86.767 17.8587 87.159 17.672ZM87.579 19.548C87.439 19.6787 87.3316 19.842 87.257 20.038C87.1823 20.234 87.1356 20.4393 87.117 20.654C87.0983 20.8593 87.1123 21.0693 87.159 21.284C87.215 21.4893 87.299 21.676 87.411 21.844C87.5043 21.984 87.6723 22.1007 87.915 22.194C88.1576 22.2873 88.4096 22.3433 88.671 22.362C88.9696 22.3807 89.231 22.3013 89.455 22.124C89.679 21.9373 89.847 21.7087 89.959 21.438C90.0803 21.1673 90.1363 20.8733 90.127 20.556C90.1176 20.2387 90.0336 19.9493 89.875 19.688C89.763 19.5013 89.6043 19.366 89.399 19.282C89.203 19.1887 88.993 19.142 88.769 19.142C88.5543 19.1327 88.3396 19.1653 88.125 19.24C87.9103 19.3053 87.7283 19.408 87.579 19.548ZM98.8726 20.668C98.8539 20.976 98.8353 21.2887 98.8166 21.606C98.7979 21.914 98.7466 22.2127 98.6626 22.502C98.5879 22.7913 98.4666 23.0527 98.2986 23.286C98.1399 23.5193 97.9113 23.706 97.6126 23.846C97.3513 23.9767 97.0713 24.0653 96.7726 24.112C96.4739 24.168 96.1753 24.1913 95.8766 24.182C95.5779 24.1727 95.2886 24.126 95.0086 24.042C94.7286 23.9673 94.4766 23.86 94.2526 23.72C94.0286 23.58 93.8466 23.398 93.7066 23.174C93.5666 22.95 93.4546 22.7073 93.3706 22.446C93.2959 22.1847 93.2446 21.914 93.2166 21.634C93.1886 21.354 93.1699 21.0927 93.1606 20.85C93.1233 20.206 93.1233 19.5713 93.1606 18.946C93.1606 18.8247 93.1606 18.6893 93.1606 18.54C93.1606 18.3813 93.1699 18.2273 93.1886 18.078C93.2166 17.9287 93.2586 17.7933 93.3146 17.672C93.3706 17.5413 93.4639 17.4433 93.5946 17.378C93.8746 17.2287 94.1313 17.2193 94.3646 17.35C94.6073 17.4807 94.7519 17.7513 94.7986 18.162C94.8266 18.3767 94.8359 18.6147 94.8266 18.876C94.8266 19.1373 94.8359 19.3753 94.8546 19.59C94.8639 19.9073 94.8733 20.2527 94.8826 20.626C94.8919 20.99 94.9433 21.3167 95.0366 21.606C95.1393 21.8953 95.3026 22.1147 95.5266 22.264C95.7599 22.404 96.1053 22.4087 96.5626 22.278C96.7773 22.2127 96.9173 22.0493 96.9826 21.788C97.0573 21.5267 97.0946 21.1393 97.0946 20.626C97.0946 20.402 97.0899 20.1547 97.0806 19.884C97.0713 19.6133 97.0666 19.3473 97.0666 19.086C97.0666 18.8153 97.0713 18.568 97.0806 18.344C97.0993 18.1107 97.1273 17.9333 97.1646 17.812C97.2113 17.644 97.3093 17.518 97.4586 17.434C97.6079 17.35 97.7666 17.308 97.9346 17.308C98.1026 17.2987 98.2613 17.3313 98.4106 17.406C98.5599 17.4807 98.6626 17.602 98.7186 17.77C98.7746 17.9193 98.8119 18.1107 98.8306 18.344C98.8586 18.568 98.8773 18.8153 98.8866 19.086C98.8959 19.3473 98.8959 19.618 98.8866 19.898C98.8866 20.1687 98.8819 20.4253 98.8726 20.668ZM101.493 23.048C100.961 22.8147 100.578 22.4787 100.345 22.04C100.121 21.6013 100.018 21.13 100.037 20.626C100.056 20.1967 100.154 19.7767 100.331 19.366C100.518 18.9553 100.76 18.6007 101.059 18.302C101.19 18.1713 101.32 18.0593 101.451 17.966C101.591 17.8633 101.74 17.7793 101.899 17.714C102.011 17.6673 102.156 17.616 102.333 17.56C102.52 17.4947 102.72 17.434 102.935 17.378C103.159 17.322 103.392 17.2753 103.635 17.238C103.878 17.2007 104.111 17.182 104.335 17.182C104.662 17.1727 104.951 17.2147 105.203 17.308C105.455 17.392 105.623 17.5507 105.707 17.784L105.791 18.12C105.81 18.1853 105.819 18.2507 105.819 18.316C105.819 18.372 105.819 18.428 105.819 18.484V26.282C105.819 26.3287 105.814 26.3707 105.805 26.408C105.805 26.4547 105.8 26.5013 105.791 26.548C105.754 26.6413 105.721 26.7487 105.693 26.87C105.637 26.9913 105.572 27.08 105.497 27.136C105.413 27.22 105.296 27.2667 105.147 27.276C104.895 27.3507 104.666 27.3273 104.461 27.206C104.349 27.122 104.265 27.024 104.209 26.912C104.181 26.884 104.167 26.856 104.167 26.828C104.158 26.8187 104.148 26.8047 104.139 26.786C104.139 26.7767 104.134 26.7627 104.125 26.744C104.106 26.688 104.088 26.632 104.069 26.576C104.06 26.5293 104.055 26.478 104.055 26.422C104.036 26.3007 104.022 26.1747 104.013 26.044C104.013 25.9227 104.013 25.7967 104.013 25.666V23.566C103.985 23.5567 103.938 23.552 103.873 23.552C103.686 23.524 103.462 23.5007 103.201 23.482C102.949 23.454 102.73 23.4167 102.543 23.37C102.198 23.3047 101.848 23.1973 101.493 23.048ZM103.649 19.212C103.425 19.24 103.201 19.282 102.977 19.338C102.753 19.3847 102.552 19.464 102.375 19.576C102.198 19.6787 102.058 19.8233 101.955 20.01C101.862 20.1873 101.829 20.43 101.857 20.738C101.885 20.9713 101.969 21.158 102.109 21.298C102.258 21.438 102.436 21.55 102.641 21.634C102.856 21.718 103.08 21.7787 103.313 21.816C103.556 21.8533 103.789 21.8767 104.013 21.886C104.004 21.438 103.999 20.9853 103.999 20.528C103.999 20.0707 104.004 19.6273 104.013 19.198C103.938 19.198 103.868 19.198 103.803 19.198C103.738 19.198 103.686 19.2027 103.649 19.212ZM112.695 20.668C112.676 20.976 112.658 21.2887 112.639 21.606C112.62 21.914 112.569 22.2127 112.485 22.502C112.41 22.7913 112.289 23.0527 112.121 23.286C111.962 23.5193 111.734 23.706 111.435 23.846C111.174 23.9767 110.894 24.0653 110.595 24.112C110.296 24.168 109.998 24.1913 109.699 24.182C109.4 24.1727 109.111 24.126 108.831 24.042C108.551 23.9673 108.299 23.86 108.075 23.72C107.851 23.58 107.669 23.398 107.529 23.174C107.389 22.95 107.277 22.7073 107.193 22.446C107.118 22.1847 107.067 21.914 107.039 21.634C107.011 21.354 106.992 21.0927 106.983 20.85C106.946 20.206 106.946 19.5713 106.983 18.946C106.983 18.8247 106.983 18.6893 106.983 18.54C106.983 18.3813 106.992 18.2273 107.011 18.078C107.039 17.9287 107.081 17.7933 107.137 17.672C107.193 17.5413 107.286 17.4433 107.417 17.378C107.697 17.2287 107.954 17.2193 108.187 17.35C108.43 17.4807 108.574 17.7513 108.621 18.162C108.649 18.3767 108.658 18.6147 108.649 18.876C108.649 19.1373 108.658 19.3753 108.677 19.59C108.686 19.9073 108.696 20.2527 108.705 20.626C108.714 20.99 108.766 21.3167 108.859 21.606C108.962 21.8953 109.125 22.1147 109.349 22.264C109.582 22.404 109.928 22.4087 110.385 22.278C110.6 22.2127 110.74 22.0493 110.805 21.788C110.88 21.5267 110.917 21.1393 110.917 20.626C110.917 20.402 110.912 20.1547 110.903 19.884C110.894 19.6133 110.889 19.3473 110.889 19.086C110.889 18.8153 110.894 18.568 110.903 18.344C110.922 18.1107 110.95 17.9333 110.987 17.812C111.034 17.644 111.132 17.518 111.281 17.434C111.43 17.35 111.589 17.308 111.757 17.308C111.925 17.2987 112.084 17.3313 112.233 17.406C112.382 17.4807 112.485 17.602 112.541 17.77C112.597 17.9193 112.634 18.1107 112.653 18.344C112.681 18.568 112.7 18.8153 112.709 19.086C112.718 19.3473 112.718 19.618 112.709 19.898C112.709 20.1687 112.704 20.4253 112.695 20.668ZM118.689 22.082C118.801 22.054 118.913 22.0353 119.025 22.026C119.146 22.0167 119.254 22.0307 119.347 22.068C119.45 22.1053 119.534 22.1707 119.599 22.264C119.664 22.348 119.697 22.4693 119.697 22.628C119.697 22.74 119.669 22.8473 119.613 22.95C119.557 23.0527 119.487 23.146 119.403 23.23C119.319 23.314 119.226 23.3887 119.123 23.454C119.02 23.51 118.922 23.5567 118.829 23.594C118.558 23.7153 118.246 23.8087 117.891 23.874C117.546 23.9393 117.186 23.9627 116.813 23.944C116.309 23.9253 115.824 23.8273 115.357 23.65C114.9 23.4633 114.54 23.16 114.279 22.74C114.036 22.3293 113.892 21.872 113.845 21.368C113.798 20.864 113.822 20.388 113.915 19.94C114.018 19.3987 114.19 18.96 114.433 18.624C114.685 18.2787 114.984 18.0033 115.329 17.798C115.749 17.5553 116.22 17.4293 116.743 17.42C117.266 17.4107 117.765 17.5133 118.241 17.728C118.558 17.868 118.843 18.0593 119.095 18.302C119.347 18.5353 119.538 18.82 119.669 19.156C119.706 19.24 119.734 19.3427 119.753 19.464C119.781 19.5853 119.8 19.716 119.809 19.856C119.818 19.9867 119.818 20.1173 119.809 20.248C119.8 20.3787 119.776 20.4953 119.739 20.598C119.683 20.766 119.613 20.8967 119.529 20.99C119.445 21.0833 119.338 21.1533 119.207 21.2C119.076 21.2467 118.918 21.2793 118.731 21.298C118.554 21.3073 118.339 21.3167 118.087 21.326C117.863 21.3353 117.653 21.34 117.457 21.34C117.261 21.34 117.06 21.34 116.855 21.34C116.65 21.3307 116.435 21.326 116.211 21.326C115.996 21.3167 115.754 21.3073 115.483 21.298C115.455 21.4847 115.478 21.648 115.553 21.788C115.637 21.9187 115.749 22.0307 115.889 22.124C116.029 22.208 116.188 22.2733 116.365 22.32C116.542 22.3667 116.715 22.3947 116.883 22.404C117.2 22.4227 117.504 22.3993 117.793 22.334C118.082 22.2593 118.381 22.1753 118.689 22.082ZM118.087 19.366C117.91 19.1607 117.723 19.0113 117.527 18.918C117.378 18.8527 117.219 18.8247 117.051 18.834C116.892 18.834 116.738 18.8573 116.589 18.904C116.318 18.9693 116.09 19.1093 115.903 19.324C115.884 19.3427 115.852 19.3893 115.805 19.464C115.758 19.5293 115.712 19.5993 115.665 19.674C115.628 19.7487 115.6 19.8187 115.581 19.884C115.562 19.9493 115.572 19.982 115.609 19.982H118.353C118.344 19.8513 118.32 19.744 118.283 19.66C118.246 19.5667 118.18 19.4687 118.087 19.366ZM126.358 17.826C126.433 18.0033 126.438 18.1993 126.372 18.414C126.316 18.6287 126.209 18.7687 126.05 18.834C125.966 18.8713 125.854 18.904 125.714 18.932C125.574 18.9507 125.42 18.9693 125.252 18.988C125.094 19.0067 124.935 19.0207 124.776 19.03C124.618 19.0393 124.482 19.044 124.37 19.044C124.38 19.324 124.389 19.6133 124.398 19.912C124.408 20.2013 124.417 20.486 124.426 20.766C124.436 21.046 124.44 21.3167 124.44 21.578C124.44 21.83 124.436 22.0587 124.426 22.264C124.426 22.404 124.426 22.5673 124.426 22.754C124.426 22.9313 124.412 23.104 124.384 23.272C124.366 23.44 124.333 23.5893 124.286 23.72C124.24 23.8413 124.17 23.9207 124.076 23.958C123.787 24.0793 123.521 24.112 123.278 24.056C123.045 24.0093 122.877 23.9113 122.774 23.762C122.7 23.6407 122.644 23.5007 122.606 23.342C122.569 23.174 122.541 23.006 122.522 22.838C122.513 22.6607 122.508 22.4927 122.508 22.334C122.518 22.166 122.522 22.0213 122.522 21.9C122.532 21.508 122.536 21.0647 122.536 20.57C122.546 20.066 122.55 19.562 122.55 19.058H122.34C122.228 19.058 122.084 19.058 121.906 19.058C121.738 19.0487 121.566 19.0347 121.388 19.016C121.22 18.988 121.062 18.9553 120.912 18.918C120.763 18.8713 120.656 18.806 120.59 18.722C120.488 18.6007 120.422 18.47 120.394 18.33C120.376 18.19 120.385 18.0593 120.422 17.938C120.469 17.8073 120.539 17.6953 120.632 17.602C120.726 17.4993 120.833 17.434 120.954 17.406C121.122 17.3593 121.36 17.336 121.668 17.336C121.976 17.3267 122.266 17.3267 122.536 17.336C122.527 17.2427 122.522 17.154 122.522 17.07C122.522 16.9767 122.518 16.888 122.508 16.804C122.499 16.692 122.494 16.552 122.494 16.384C122.494 16.2067 122.504 16.034 122.522 15.866C122.55 15.6887 122.592 15.5253 122.648 15.376C122.704 15.2173 122.784 15.096 122.886 15.012C123.026 14.9 123.166 14.8393 123.306 14.83C123.456 14.8113 123.591 14.83 123.712 14.886C123.843 14.942 123.95 15.026 124.034 15.138C124.128 15.2407 124.193 15.3573 124.23 15.488C124.258 15.6 124.282 15.7353 124.3 15.894C124.319 16.0433 124.328 16.202 124.328 16.37C124.338 16.538 124.342 16.706 124.342 16.874C124.342 17.042 124.342 17.196 124.342 17.336H124.482C124.622 17.336 124.786 17.3313 124.972 17.322C125.159 17.3127 125.341 17.3173 125.518 17.336C125.705 17.3547 125.873 17.4013 126.022 17.476C126.172 17.5413 126.284 17.658 126.358 17.826Z" fill="white"/>
<g clip-path="url(#clip0_66_14)">
<path d="M80.8333 51H82.5V45H80.8333V51ZM84.1667 51H85.8333V41.6667H84.1667V51ZM77.5 51H79.1667V48.3333H77.5V51ZM87.5 51H89.1667V45H87.5V51ZM90.8333 48.3333V51H92.5V48.3333H90.8333Z" fill="url(#paint0_linear_66_14)"/>
</g>
<g clip-path="url(#clip1_66_14)">
<path d="M97.8333 51H99.5V45H97.8333V51ZM101.167 51H102.833V41.6667H101.167V51ZM94.5 51H96.1667V48.3333H94.5V51ZM104.5 51H106.167V45H104.5V51ZM107.833 48.3333V51H109.5V48.3333H107.833Z" fill="url(#paint1_linear_66_14)"/>
</g>
<g clip-path="url(#clip2_66_14)">
<path d="M114.833 51H116.5V45H114.833V51ZM118.167 51H119.833V41.6667H118.167V51ZM111.5 51H113.167V48.3333H111.5V51ZM121.5 51H123.167V45H121.5V51ZM124.833 48.3333V51H126.5V48.3333H124.833Z" fill="url(#paint2_linear_66_14)"/>
</g>
<g clip-path="url(#clip3_66_14)">
<path d="M131.833 51H133.5V45H131.833V51ZM135.167 51H136.833V41.6667H135.167V51ZM128.5 51H130.167V48.3333H128.5V51ZM138.5 51H140.167V45H138.5V51ZM141.833 48.3333V51H143.5V48.3333H141.833Z" fill="url(#paint3_linear_66_14)"/>
</g>
<g clip-path="url(#clip4_66_14)">
<path d="M148.833 51H150.5V45H148.833V51ZM152.167 51H153.833V41.6667H152.167V51ZM145.5 51H147.167V48.3333H145.5V51ZM155.5 51H157.167V45H155.5V51ZM158.833 48.3333V51H160.5V48.3333H158.833Z" fill="url(#paint4_linear_66_14)"/>
</g>
<g clip-path="url(#clip5_66_14)">
<path d="M165.833 51H167.5V45H165.833V51ZM169.167 51H170.833V41.6667H169.167V51ZM162.5 51H164.167V48.3333H162.5V51ZM172.5 51H174.167V45H172.5V51ZM175.833 48.3333V51H177.5V48.3333H175.833Z" fill="url(#paint5_linear_66_14)"/>
</g>
<g clip-path="url(#clip6_66_14)">
<path d="M182.833 51H184.5V45H182.833V51ZM186.167 51H187.833V41.6667H186.167V51ZM179.5 51H181.167V48.3333H179.5V51ZM189.5 51H191.167V45H189.5V51ZM192.833 48.3333V51H194.5V48.3333H192.833Z" fill="url(#paint6_linear_66_14)"/>
</g>
<path d="M20.592 42.4594C19.6252 42.4594 18.7817 42.2949 18.0617 41.9863C17.3417 41.6777 16.7452 41.2251 16.2926 40.6697C15.8195 40.1143 15.4697 39.456 15.2229 38.6949C14.976 37.9337 14.8732 37.1314 14.8732 36.2469C14.8732 35.3623 14.9966 34.5394 15.2229 33.7783C15.4697 33.0171 15.8195 32.3383 16.2926 31.7829C16.7657 31.2274 17.3623 30.7749 18.0617 30.4457C18.7612 30.1166 19.6252 29.952 20.592 29.952C21.5589 29.952 22.4023 30.1166 23.1223 30.4457C23.8423 30.7749 24.4389 31.2069 24.9326 31.7829C25.4057 32.3383 25.7555 33.0171 26.0023 33.7783C26.2286 34.5394 26.352 35.3623 26.352 36.2469C26.352 37.1314 26.2286 37.9337 26.0023 38.6949C25.776 39.456 25.4263 40.1143 24.9326 40.6697C24.4595 41.2251 23.8629 41.6777 23.1223 41.9863C22.4229 42.3154 21.5589 42.4594 20.592 42.4594ZM20.592 39.9703C21.456 39.9703 22.0732 39.6411 22.4435 39.0034C22.8137 38.3657 22.9989 37.44 22.9989 36.2469C22.9989 35.0537 22.8137 34.128 22.4435 33.4903C22.0732 32.8526 21.456 32.5234 20.592 32.5234C19.7486 32.5234 19.1315 32.8526 18.7612 33.4903C18.3909 34.128 18.2057 35.0537 18.2057 36.2469C18.2057 37.44 18.3909 38.3657 18.7612 39.0034C19.1315 39.6617 19.7486 39.9703 20.592 39.9703ZM31.248 36.9874C30.384 36.7406 29.7052 36.3703 29.232 35.8971C28.7383 35.4034 28.512 34.6834 28.512 33.7166C28.512 32.544 28.9235 31.6389 29.7669 30.96C30.6103 30.3017 31.7417 29.9726 33.2023 29.9726C33.7989 29.9726 34.3955 30.0343 34.9715 30.1371C35.5475 30.24 36.144 30.4046 36.7406 30.6309C36.6995 31.0217 36.6377 31.4537 36.5143 31.8857C36.3909 32.3177 36.2469 32.688 36.0823 33.0171C35.712 32.8731 35.3006 32.7291 34.8686 32.6057C34.416 32.4823 33.9429 32.4411 33.4697 32.4411C32.9555 32.4411 32.544 32.5234 32.256 32.688C31.968 32.8526 31.824 33.0994 31.824 33.4697C31.824 33.7989 31.9269 34.0457 32.1326 34.1897C32.3383 34.3337 32.6263 34.4571 33.0172 34.5806L34.3337 34.9714C34.7657 35.0949 35.1566 35.2389 35.5063 35.424C35.856 35.6091 36.144 35.8149 36.3909 36.0823C36.6377 36.3497 36.8229 36.6583 36.9669 37.0491C37.1109 37.44 37.1726 37.9131 37.1726 38.448C37.1726 39.024 37.0492 39.5383 36.8229 40.032C36.576 40.5257 36.2469 40.9577 35.7943 41.3074C35.3417 41.6777 34.7863 41.9451 34.1486 42.1714C33.5109 42.3771 32.7703 42.48 31.9475 42.48C31.5772 42.48 31.248 42.4594 30.9395 42.4389C30.6309 42.4183 30.3429 42.3771 30.0549 42.3154C29.7669 42.2537 29.4995 42.192 29.2115 42.1097C28.944 42.0274 28.6355 41.9246 28.3063 41.8011C28.3269 41.3897 28.4092 40.9577 28.5326 40.5463C28.656 40.1143 28.8 39.7029 28.9852 39.312C29.4995 39.5177 29.9726 39.6617 30.4252 39.7646C30.8777 39.8674 31.3509 39.9086 31.8446 39.9086C32.0503 39.9086 32.2972 39.888 32.544 39.8469C32.7909 39.8057 33.0377 39.744 33.2435 39.6411C33.4492 39.5383 33.6343 39.4149 33.7783 39.2503C33.9223 39.0857 34.0046 38.88 34.0046 38.6126C34.0046 38.2423 33.9017 37.9749 33.6755 37.8103C33.4492 37.6457 33.1406 37.5017 32.7497 37.3783L31.248 36.9874ZM39.3326 30.2606C39.888 30.1783 40.4229 30.1166 40.9783 30.1166C41.5132 30.1166 42.0686 30.1577 42.624 30.2606V36.576C42.624 37.2137 42.6652 37.728 42.768 38.1394C42.8709 38.5509 43.0149 38.88 43.2206 39.1063C43.4263 39.3531 43.6937 39.5177 44.0023 39.6206C44.3109 39.7234 44.6812 39.7646 45.0926 39.7646C45.6686 39.7646 46.1417 39.7029 46.5326 39.6V30.2606C47.088 30.1783 47.6229 30.1166 48.1577 30.1166C48.6926 30.1166 49.248 30.1577 49.8035 30.2606V41.7394C49.3097 41.904 48.6515 42.0686 47.8492 42.2331C47.0469 42.3977 46.2035 42.48 45.3189 42.48C44.5372 42.48 43.776 42.4183 43.056 42.2949C42.336 42.1714 41.6983 41.904 41.1429 41.5131C40.5875 41.1223 40.1555 40.5257 39.8469 39.7646C39.5177 39.0034 39.3532 37.9749 39.3532 36.6994V30.2606H39.3326ZM52.8892 42.192C52.8069 41.616 52.7452 41.0606 52.7452 40.5051C52.7452 39.9497 52.7863 39.3737 52.8892 38.7977C53.4652 38.7154 54.0206 38.6537 54.576 38.6537C55.1315 38.6537 55.7075 38.6949 56.2835 38.7977C56.3657 39.3737 56.4275 39.9497 56.4275 40.4846C56.4275 41.0606 56.3863 41.616 56.2835 42.192C55.7075 42.2743 55.1315 42.336 54.5966 42.336C54.0206 42.3154 53.4652 42.2743 52.8892 42.192ZM52.8069 25.5909C53.4035 25.5086 54 25.4469 54.576 25.4469C55.1726 25.4469 55.7692 25.488 56.3863 25.5909L56.16 36.8846C55.6252 36.9669 55.1109 37.0286 54.6172 37.0286C54.1029 37.0286 53.568 36.9874 53.0537 36.8846L52.8069 25.5909Z" fill="url(#paint7_linear_66_14)"/>
<path d="M36 5.14285C18.9668 5.14285 5.14282 18.9669 5.14282 36C5.14282 53.0331 18.9668 66.8571 36 66.8571C53.0331 66.8571 66.8571 53.0331 66.8571 36C66.8571 18.9669 53.0331 5.14285 36 5.14285ZM36 63.7714C20.6537 63.7714 8.22854 51.3463 8.22854 36C8.22854 20.6537 20.6537 8.22857 36 8.22857C51.3463 8.22857 63.7714 20.6537 63.7714 36C63.7714 51.3463 51.3463 63.7714 36 63.7714Z" fill="url(#paint8_linear_66_14)"/>
<defs>
<linearGradient id="paint0_linear_66_14" x1="85" y1="41.6667" x2="85" y2="51" gradientUnits="userSpaceOnUse">
<stop stop-color="#FF00DD"/>
<stop offset="1" stop-color="#FF8000"/>
</linearGradient>
<linearGradient id="paint1_linear_66_14" x1="102" y1="41.6667" x2="102" y2="51" gradientUnits="userSpaceOnUse">
<stop stop-color="#FF00DD"/>
<stop offset="1" stop-color="#FF8000"/>
</linearGradient>
<linearGradient id="paint2_linear_66_14" x1="119" y1="41.6667" x2="119" y2="51" gradientUnits="userSpaceOnUse">
<stop stop-color="#FF00DD"/>
<stop offset="1" stop-color="#FF8000"/>
</linearGradient>
<linearGradient id="paint3_linear_66_14" x1="136" y1="41.6667" x2="136" y2="51" gradientUnits="userSpaceOnUse">
<stop stop-color="#FF00DD"/>
<stop offset="1" stop-color="#FF8000"/>
</linearGradient>
<linearGradient id="paint4_linear_66_14" x1="153" y1="41.6667" x2="153" y2="51" gradientUnits="userSpaceOnUse">
<stop stop-color="#FF00DD"/>
<stop offset="1" stop-color="#FF8000"/>
</linearGradient>
<linearGradient id="paint5_linear_66_14" x1="170" y1="41.6667" x2="170" y2="51" gradientUnits="userSpaceOnUse">
<stop stop-color="#FF00DD"/>
<stop offset="1" stop-color="#FF8000"/>
</linearGradient>
<linearGradient id="paint6_linear_66_14" x1="187" y1="41.6667" x2="187" y2="51" gradientUnits="userSpaceOnUse">
<stop stop-color="#FF00DD"/>
<stop offset="1" stop-color="#FF8000"/>
</linearGradient>
<linearGradient id="paint7_linear_66_14" x1="35.6503" y1="25.4469" x2="35.6503" y2="42.48" gradientUnits="userSpaceOnUse">
<stop stop-color="#FF00DD"/>
<stop offset="1" stop-color="#FF9B36"/>
</linearGradient>
<linearGradient id="paint8_linear_66_14" x1="36" y1="5.14285" x2="36" y2="66.8571" gradientUnits="userSpaceOnUse">
<stop stop-color="#FF00DD"/>
<stop offset="1" stop-color="#FF9B36"/>
</linearGradient>
<clipPath id="clip0_66_14">
<rect width="20" height="20" fill="white" transform="translate(75 40)"/>
</clipPath>
<clipPath id="clip1_66_14">
<rect width="20" height="20" fill="white" transform="translate(92 40)"/>
</clipPath>
<clipPath id="clip2_66_14">
<rect width="20" height="20" fill="white" transform="translate(109 40)"/>
</clipPath>
<clipPath id="clip3_66_14">
<rect width="20" height="20" fill="white" transform="translate(126 40)"/>
</clipPath>
<clipPath id="clip4_66_14">
<rect width="20" height="20" fill="white" transform="translate(143 40)"/>
</clipPath>
<clipPath id="clip5_66_14">
<rect width="20" height="20" fill="white" transform="translate(160 40)"/>
</clipPath>
<clipPath id="clip6_66_14">
<rect width="20" height="20" fill="white" transform="translate(177 40)"/>
</clipPath>
</defs>
</svg>
